{"glyphs":{"0":{"ha":992,"x_min":27,"x_max":965,"o":"m 498 -14 l 498 -14 q 96 423 146 -14 l 96 423 q 27 541 86 512 l 27 541 q 97 655 86 568 q 139 815 107 741 q 222 943 171 890 l 222 943 q 499 1051 327 1051 q 772 950 671 1051 q 896 650 873 849 l 896 650 q 965 541 905 568 l 965 541 q 895 415 906 511 q 852 237 884 318 q 769 100 820 155 l 769 100 q 498 -14 667 -14 z m 498 77 l 498 77 q 609 222 609 77 l 609 222 l 609 812 q 544 950 609 916 l 544 950 q 498 961 523 961 l 498 961 q 413 922 445 961 q 380 812 380 884 l 380 812 l 380 222 q 411 115 380 152 q 498 77 441 77 z m 720 498 l 720 498 q 766 548 720 532 l 766 548 q 720 613 720 562 l 720 613 l 720 668 q 674 848 720 828 l 674 848 l 674 180 q 712 264 705 192 l 712 264 q 720 498 720 333 z m 250 180 l 250 180 q 260 194 260 184 l 260 194 q 246 241 260 209 l 246 241 q 210 541 210 323 l 210 541 q 248 810 210 699 l 248 810 q 253 836 253 827 q 244 848 253 845 l 244 848 q 199 768 212 808 l 199 768 q 159 574 174 696 l 159 574 q 119 541 157 556 l 119 541 q 159 506 157 524 l 159 506 q 221 225 183 296 l 221 225 q 250 180 234 200 z "},"1":{"ha":626,"x_min":85,"x_max":592,"o":"m 417 8 l 417 8 q 338 -14 382 -14 q 260 8 294 -14 l 260 8 q 196 -14 225 -14 q 147 -8 166 -14 q 114 5 128 -3 l 114 5 q 85 50 85 23 l 85 50 q 92 73 85 63 l 92 73 q 130 62 107 62 l 130 62 q 214 113 191 62 l 214 113 l 214 445 q 201 491 214 476 l 201 491 q 131 541 180 516 l 131 541 q 191 578 177 562 l 191 578 q 214 637 214 604 l 214 637 l 214 784 q 177 844 214 844 q 113 812 140 844 l 113 812 q 104 836 104 821 q 109 869 104 850 q 126 906 114 887 l 126 906 q 210 972 155 951 l 210 972 q 260 982 237 982 q 297 979 282 982 l 297 979 q 390 1052 351 1047 q 453 1041 429 1057 q 476 987 476 1025 l 476 987 l 476 971 q 475 951 476 962 q 474 929 475 940 q 472 909 473 918 q 469 882 471 899 q 466 843 467 864 l 466 843 q 463 753 463 801 l 463 753 l 463 637 q 477 588 463 604 l 477 588 q 546 541 500 562 l 546 541 q 483 500 496 516 l 483 500 q 463 445 463 476 l 463 445 l 463 113 q 547 62 486 62 l 547 62 q 585 73 570 62 l 585 73 q 592 50 592 63 q 584 25 592 37 q 563 5 576 14 l 563 5 q 492 -14 532 -14 q 417 8 452 -14 z m 279 268 l 279 180 q 316 269 313 193 l 316 269 q 320 478 320 345 q 320 653 320 612 q 319 715 319 693 q 316 749 318 738 l 316 749 l 313 773 q 279 822 307 809 l 279 822 q 276 607 279 627 q 269 576 273 587 l 269 576 q 224 540 261 551 l 224 540 q 271 506 265 526 l 271 506 q 279 268 279 473 l 279 268 z "},"2":{"ha":881,"x_min":94,"x_max":847,"o":"m 233 8 l 233 8 q 160 -26 193 -26 q 111 -10 127 -26 q 94 32 94 6 l 94 32 q 118 48 110 39 l 118 48 q 106 131 106 83 q 123 228 106 179 q 172 319 140 276 l 172 319 q 368 476 231 394 l 368 476 q 484 587 450 531 l 484 587 q 525 762 525 656 l 525 762 q 390 960 525 960 l 390 960 q 274 913 321 960 l 274 913 q 223 774 223 862 q 258 642 223 686 l 258 642 q 225 629 242 629 q 191 636 209 629 q 159 655 174 642 l 159 655 q 125 729 125 686 q 136 795 125 771 l 136 795 q 100 857 100 819 q 125 922 100 895 l 125 922 q 104 974 104 950 q 110 1014 104 997 q 129 1043 117 1030 l 129 1043 q 190 1069 154 1069 l 190 1069 q 222 1062 208 1069 l 222 1062 q 213 1035 213 1049 l 213 1035 q 233 1017 213 1017 l 233 1017 q 283 1029 247 1017 l 283 1029 q 432 1051 351 1051 q 563 1041 513 1051 q 654 1008 613 1031 l 654 1008 q 783 861 736 964 l 783 861 q 847 787 804 812 l 847 787 q 779 696 806 764 l 779 696 q 616 496 730 575 l 616 496 q 513 439 576 470 q 398 377 450 408 q 313 319 346 346 l 313 319 q 240 215 253 269 l 240 215 q 440 199 334 199 q 588 205 546 199 q 655 225 630 212 l 655 225 q 702 302 702 249 l 702 302 q 694 336 702 322 l 694 336 q 717 346 698 346 q 750 338 736 346 q 776 319 765 331 l 776 319 q 799 250 799 292 q 766 174 799 209 l 766 174 q 791 127 791 157 q 774 79 791 96 l 774 79 q 783 47 783 63 q 778 20 783 31 q 762 1 772 9 l 762 1 q 711 -14 742 -14 q 652 0 680 -14 l 652 0 q 449 -14 554 -14 q 233 8 345 -14 z m 536 951 l 536 951 q 587 774 587 895 l 587 774 q 568 612 587 657 l 568 612 q 614 669 595 617 l 614 669 q 625 708 621 688 q 631 740 629 728 q 639 760 633 751 l 639 760 q 675 787 649 778 l 675 787 q 642 805 648 795 q 633 825 635 815 l 633 825 l 626 848 q 567 938 609 909 l 567 938 q 536 951 553 948 z m 679 149 l 679 149 q 450 117 607 117 q 233 143 292 117 l 233 143 q 232 131 230 139 q 239 116 234 123 q 269 103 245 109 q 324 94 293 97 l 324 94 q 427 87 372 87 q 518 89 483 87 q 585 94 554 90 l 585 94 q 672 121 658 102 l 672 121 q 679 149 681 133 z "},"3":{"ha":844,"x_min":61,"x_max":844,"o":"m 184 -24 l 184 -24 q 150 -32 168 -32 q 116 -24 132 -32 q 90 -3 100 -16 l 90 -3 q 66 56 66 24 q 86 116 66 88 l 86 116 q 61 180 61 141 q 99 243 61 220 l 99 243 q 86 298 86 268 q 93 346 86 328 q 114 378 100 364 l 114 378 q 186 408 142 408 l 186 408 q 220 395 205 408 l 220 395 q 185 265 185 351 l 185 265 q 282 91 185 130 l 282 91 q 346 79 313 79 q 408 88 378 79 q 461 119 437 98 l 461 119 q 515 267 515 169 l 515 267 l 515 340 q 487 457 515 413 l 487 457 q 418 497 460 500 l 418 497 q 312 554 312 490 l 312 554 q 330 597 312 580 l 330 597 q 361 587 345 587 q 386 591 378 587 l 386 591 l 409 601 q 469 660 448 619 l 469 660 q 481 718 481 683 l 481 718 l 481 777 q 439 922 481 876 l 439 922 q 346 960 406 960 l 346 960 q 218 865 251 960 l 218 865 q 208 802 208 834 q 212 752 208 769 q 222 723 216 734 l 222 723 q 242 696 231 705 l 242 696 q 207 684 229 684 q 168 690 186 684 q 136 708 149 697 l 136 708 q 109 757 109 731 q 117 798 109 783 l 117 798 q 84 858 84 821 q 110 922 84 895 l 110 922 q 88 974 88 950 q 95 1014 88 997 q 113 1043 101 1030 l 113 1043 q 174 1069 138 1069 l 174 1069 q 207 1062 192 1069 l 207 1062 q 197 1035 197 1047 l 197 1035 q 218 1017 197 1017 l 218 1017 q 264 1027 231 1017 l 264 1027 q 407 1051 342 1051 q 523 1038 472 1051 q 617 1000 574 1025 l 617 1000 q 732 863 710 947 l 732 863 q 797 787 746 817 l 797 787 q 729 705 745 758 l 729 705 q 600 568 701 612 l 600 568 q 716 498 668 542 q 780 397 764 454 l 780 397 q 844 328 791 359 l 844 328 q 774 239 792 298 q 716 131 756 179 q 623 50 675 82 l 623 50 q 380 -14 517 -14 l 380 -14 q 218 18 295 -14 l 218 18 q 195 23 205 23 l 195 23 q 175 6 175 23 q 184 -24 175 -11 z m 531 611 l 531 611 q 585 735 571 618 l 585 735 q 633 787 589 771 l 633 787 q 598 813 612 793 q 580 853 583 833 q 570 888 576 872 q 555 916 564 903 l 555 916 q 520 944 538 941 l 520 944 l 527 929 q 543 823 543 895 q 543 724 543 750 q 541 679 543 699 l 541 679 q 531 611 540 646 z m 558 136 l 558 136 q 590 158 580 140 l 590 158 q 615 236 606 186 l 615 236 q 667 328 630 315 l 667 328 q 618 385 625 340 l 618 385 q 592 450 611 428 l 592 450 q 541 490 562 486 l 541 490 q 550 474 544 484 q 562 448 556 465 l 562 448 q 577 348 577 405 q 575 260 577 291 q 571 203 574 229 l 571 203 q 558 136 566 155 z "},"4":{"ha":966,"x_min":1,"x_max":933,"o":"m 357 58 l 357 58 q 440 110 417 58 l 440 110 l 440 298 l 78 298 q 19 312 37 298 q 1 343 1 326 l 1 343 q 37 417 1 371 l 37 417 l 389 964 q 450 1030 423 1009 q 504 1051 476 1051 q 557 1031 531 1051 l 557 1031 q 613 1051 583 1051 q 667 1038 643 1051 l 667 1038 q 720 1051 694 1051 q 760 1046 745 1051 q 785 1034 774 1042 l 785 1034 q 810 988 810 1015 l 810 988 q 803 964 810 975 l 803 964 q 765 976 788 976 l 765 976 q 690 932 714 976 l 690 932 l 690 389 q 776 400 753 389 q 810 425 800 410 q 821 476 821 439 q 806 536 821 513 l 806 536 q 840 546 817 546 l 840 546 q 906 499 886 546 l 906 499 q 913 464 913 482 q 905 422 913 445 l 905 422 q 933 346 933 390 q 905 271 933 302 l 905 271 q 913 229 913 248 q 906 193 913 210 q 887 166 899 176 l 887 166 q 840 147 867 147 l 840 147 q 806 158 821 147 l 806 158 q 821 213 821 182 q 809 259 821 243 q 782 282 798 275 q 756 291 766 289 q 734 294 745 293 l 734 294 q 690 298 707 298 l 690 298 l 690 110 q 773 58 713 58 l 773 58 q 811 70 796 58 l 811 70 q 819 46 819 60 q 811 22 819 33 q 789 1 803 10 l 789 1 q 718 -17 758 -17 q 644 5 678 -17 l 644 5 q 565 -17 609 -17 q 486 5 521 -17 l 486 5 q 422 -17 452 -17 q 374 -12 393 -17 q 340 1 355 -7 l 340 1 q 311 46 311 20 l 311 46 q 319 70 311 60 l 319 70 q 357 58 334 58 z m 130 389 l 440 389 l 440 878 l 130 389 z m 593 348 l 593 348 q 547 387 547 362 l 547 387 q 541 785 547 751 l 541 785 q 505 848 533 835 l 505 848 l 505 180 q 547 313 547 196 l 547 313 q 593 348 547 332 z "},"5":{"ha":873,"x_min":62,"x_max":860,"o":"m 192 -24 l 192 -24 q 132 -28 157 -40 q 94 -3 106 -16 l 94 -3 q 66 58 66 24 q 88 117 66 91 l 88 117 q 62 188 62 146 q 98 252 62 229 l 98 252 q 94 298 94 269 q 101 346 94 328 q 121 378 108 364 l 121 378 q 194 408 150 408 l 194 408 q 227 395 213 408 l 227 395 q 193 265 193 351 l 193 265 q 251 126 193 178 l 251 126 q 391 79 306 79 l 391 79 q 525 184 488 79 l 525 184 q 538 281 538 224 l 538 281 l 538 376 q 468 563 538 516 l 468 563 q 402 579 445 579 q 325 572 359 579 q 269 556 291 565 q 231 540 246 547 q 199 533 216 533 l 199 533 q 123 606 120 533 l 123 606 l 123 956 q 152 1043 125 1025 l 152 1043 q 188 1051 163 1051 q 232 1024 214 1051 l 232 1024 q 406 1051 323 1051 q 601 1036 489 1051 l 601 1036 q 665 1051 638 1051 q 705 1047 692 1051 q 727 1036 717 1044 l 727 1036 q 748 998 748 1020 q 733 956 748 976 l 733 956 q 756 908 756 939 q 734 859 756 877 l 734 859 q 747 821 747 842 q 741 786 747 800 q 726 762 736 772 l 726 762 q 672 738 703 738 l 672 738 q 638 755 642 738 l 638 755 q 647 787 647 765 q 633 820 647 809 q 589 840 619 831 l 589 840 q 412 859 523 859 q 228 833 301 859 l 228 833 l 228 616 q 456 670 319 670 l 456 670 q 755 534 673 670 l 755 534 q 790 452 782 489 q 806 404 799 416 q 823 382 814 392 l 823 382 q 860 354 836 368 l 860 354 q 792 272 803 322 l 792 272 q 669 49 758 113 l 669 49 q 408 -14 582 -14 l 408 -14 q 227 18 302 -14 l 227 18 q 202 23 213 23 l 202 23 q 182 6 182 23 q 192 -24 182 -11 z m 233 921 l 233 921 q 420 947 282 947 q 623 916 559 947 l 623 916 q 613 948 625 936 q 555 969 602 960 q 454 978 507 978 q 370 976 401 978 q 313 970 339 974 l 313 970 q 244 950 258 962 q 233 921 230 937 z m 560 544 l 560 544 q 603 355 603 467 l 603 355 q 577 150 603 201 l 577 150 q 612 174 601 155 l 612 174 q 641 261 631 208 q 664 331 650 313 q 693 355 677 349 l 693 355 q 661 380 673 361 q 640 437 648 400 q 609 507 633 475 q 560 544 586 540 z "},"6":{"ha":991,"x_min":39,"x_max":996,"o":"m 882 968 l 882 968 q 907 909 907 946 q 871 844 907 871 l 871 844 q 875 818 875 833 q 868 788 875 803 q 852 764 862 774 l 852 764 q 810 745 831 745 l 810 745 q 751 758 764 745 l 751 758 q 757 767 753 762 q 764 777 761 771 l 764 777 q 773 824 773 794 q 760 880 773 853 q 720 925 746 907 l 720 925 q 579 960 671 960 l 579 960 q 467 913 510 960 l 467 913 q 419 774 419 864 l 419 774 l 419 656 q 564 692 485 692 q 701 680 642 692 q 806 640 760 668 l 806 640 q 931 459 900 584 l 931 459 q 996 374 945 404 l 996 374 q 927 281 945 346 q 881 160 909 216 q 810 65 853 104 l 810 65 q 550 -17 719 -17 l 550 -17 q 172 202 277 -17 l 172 202 q 121 403 134 283 l 121 403 q 93 490 116 453 q 39 542 69 527 l 39 542 q 121 664 111 576 q 170 823 131 752 q 270 945 210 895 l 270 945 q 570 1051 397 1051 l 570 1051 q 688 1037 650 1051 l 688 1037 q 751 1022 728 1022 l 751 1022 q 770 1046 770 1022 l 770 1046 q 765 1076 770 1059 l 765 1076 q 804 1086 783 1086 q 841 1082 826 1086 q 867 1069 855 1078 l 867 1069 q 895 1018 895 1048 q 882 968 895 987 z m 275 189 l 275 189 q 286 203 286 193 l 286 203 q 271 250 286 218 l 271 250 q 235 542 235 332 l 235 542 q 273 810 235 699 l 273 810 q 278 836 278 827 q 269 848 278 845 l 269 848 q 223 770 236 806 l 223 770 q 184 582 199 703 l 184 582 q 151 549 182 569 l 151 549 q 137 542 143 544 l 137 542 q 173 518 163 530 q 184 500 183 506 l 184 500 q 216 305 201 355 l 216 305 q 275 189 239 235 z m 419 445 l 419 242 q 503 85 419 121 l 503 85 q 556 74 530 74 q 601 83 582 74 q 635 113 621 93 l 635 113 q 667 235 667 155 l 667 235 l 667 448 q 636 563 667 525 q 555 601 606 601 l 555 601 q 430 514 463 601 l 430 514 q 419 445 419 484 l 419 445 z m 699 578 l 699 578 q 734 375 734 497 l 734 375 q 727 201 734 257 q 715 136 719 144 l 715 136 q 764 237 743 142 l 764 237 q 776 300 770 266 l 776 300 q 825 375 787 362 l 825 375 q 792 401 805 381 q 772 461 779 420 q 744 538 766 502 q 699 578 722 574 z "},"7":{"ha":848,"x_min":75,"x_max":821,"o":"m 406 5 l 406 5 q 317 -9 367 -22 l 317 -9 q 259 66 259 7 l 259 66 q 281 180 259 125 q 322 275 304 235 l 322 275 l 425 484 l 614 826 q 458 846 541 846 q 323 834 375 846 q 239 803 272 823 l 239 803 q 172 708 172 765 l 172 708 q 180 674 172 688 l 180 674 q 157 665 176 665 q 123 672 138 665 q 98 692 109 680 l 98 692 q 75 759 75 719 q 106 829 75 800 l 106 829 q 82 878 82 848 q 100 925 82 907 l 100 925 q 77 992 77 960 q 83 1043 77 1024 q 99 1076 89 1062 l 99 1076 q 156 1108 123 1108 l 156 1108 q 222 1036 153 1036 l 222 1036 q 324 1044 243 1036 l 324 1044 q 505 1051 399 1051 q 730 1019 611 1051 l 730 1019 q 781 1051 754 1051 l 781 1051 q 821 1006 821 1051 l 821 1006 q 798 931 821 979 l 798 931 l 764 863 q 544 140 544 415 l 544 140 q 635 62 544 62 l 635 62 q 673 73 658 62 l 673 73 q 680 50 680 63 q 672 24 680 36 q 652 4 665 13 l 652 4 q 588 -14 625 -14 q 519 1 551 -14 l 519 1 q 406 5 459 -31 z m 233 921 l 233 921 q 420 947 282 947 q 623 916 559 947 l 623 916 q 613 948 625 936 q 555 969 602 960 q 454 978 507 978 q 370 976 401 978 q 313 970 339 974 l 313 970 q 244 950 258 962 q 233 921 230 937 z m 543 583 l 543 583 q 342 118 342 230 l 342 118 q 356 83 342 94 q 399 73 370 73 l 399 73 q 389 103 389 88 l 389 103 l 389 126 q 446 313 389 178 l 446 313 q 522 489 506 451 l 522 489 l 542 541 q 549 569 549 560 q 543 583 549 578 z "},"8":{"ha":954,"x_min":14,"x_max":941,"o":"m 216 45 q 135 126 168 77 q 87 227 102 176 q 54 296 72 277 q 14 328 35 315 l 14 328 q 78 404 64 357 l 78 404 q 190 537 98 479 l 190 537 q 245 564 217 554 l 245 564 q 129 692 165 614 l 129 692 l 115 722 q 61 787 95 768 l 61 787 q 98 813 88 800 l 98 813 q 130 873 112 831 q 181 950 147 914 q 260 1008 215 985 l 260 1008 q 478 1051 345 1051 q 699 1007 612 1051 q 829 863 785 964 l 829 863 q 893 787 852 810 l 893 787 q 829 713 853 764 l 829 713 q 711 564 781 610 l 711 564 q 854 453 802 533 l 854 453 q 875 409 870 429 q 888 378 880 390 q 905 356 895 366 l 905 356 q 941 328 920 339 l 941 328 q 871 239 893 301 q 814 127 848 176 q 731 45 779 77 l 731 45 q 480 -17 637 -17 l 480 -17 q 216 45 309 -17 l 216 45 z m 443 591 l 443 591 q 480 586 463 586 q 516 591 497 586 q 549 608 534 595 l 549 608 q 585 701 585 637 l 585 701 l 585 852 q 552 930 585 899 l 552 930 q 480 960 522 960 l 480 960 q 414 939 439 960 l 414 939 q 370 857 370 903 l 370 857 l 370 701 q 443 591 370 608 z m 275 638 l 275 638 q 231 800 231 700 l 231 800 q 282 951 231 877 l 282 951 q 233 921 258 947 q 191 844 207 895 l 191 844 q 152 795 180 813 l 152 795 q 135 787 143 789 l 135 787 q 188 743 176 773 l 188 743 q 228 664 209 688 q 275 638 248 640 z m 641 638 l 641 638 q 665 655 658 641 l 665 655 q 684 713 677 678 q 693 756 690 747 q 703 770 697 764 l 703 770 q 736 787 715 780 l 736 787 q 699 813 711 795 q 684 848 687 831 q 674 883 681 865 q 659 914 667 901 l 659 914 q 623 944 641 941 l 623 944 l 630 929 q 646 787 646 895 l 646 787 l 646 742 q 641 638 646 673 z m 349 378 l 349 220 q 390 111 349 151 l 390 111 q 480 74 427 74 l 480 74 q 567 111 533 74 l 567 111 q 605 220 605 151 l 605 220 l 605 378 q 525 490 605 469 l 525 490 q 479 495 503 495 q 432 487 456 495 q 391 464 409 479 l 391 464 q 349 378 349 430 l 349 378 z m 650 476 l 650 476 q 667 365 667 438 q 665 260 667 291 q 661 203 663 229 l 661 203 q 648 136 655 155 l 648 136 q 680 158 669 140 l 680 158 q 705 236 696 186 l 705 236 q 757 328 720 315 l 757 328 q 706 383 713 341 q 683 449 699 425 q 650 476 667 473 z m 230 136 l 230 136 q 185 328 185 248 l 185 328 q 198 426 185 396 q 222 476 211 456 l 222 476 q 149 384 175 468 l 149 384 q 128 346 141 358 q 94 328 115 334 l 94 328 q 148 269 135 315 q 172 199 161 222 q 193 161 183 175 l 193 161 q 230 136 210 139 z "},"9":{"ha":991,"x_min":27,"x_max":964,"o":"m 255 -41 l 255 -41 q 216 -52 237 -52 q 179 -47 194 -52 q 153 -35 165 -43 l 153 -35 q 125 16 125 -14 q 137 66 125 47 l 137 66 q 113 125 113 89 q 149 191 113 161 l 149 191 q 145 216 145 201 q 152 246 145 231 q 168 270 158 260 l 168 270 q 210 289 189 289 l 210 289 q 269 277 256 289 l 269 277 q 263 268 267 272 q 256 256 259 263 l 256 256 q 247 211 247 240 q 260 154 247 181 q 300 110 274 127 l 300 110 q 441 75 349 75 l 441 75 q 555 121 509 75 l 555 121 q 603 248 603 169 l 603 248 l 603 380 q 461 342 536 342 q 327 358 387 342 q 218 410 266 374 l 218 410 q 92 648 119 485 l 92 648 q 27 724 83 691 l 27 724 q 97 812 79 753 q 154 918 115 871 q 244 994 193 964 l 244 994 q 456 1051 343 1051 q 644 1024 568 1051 q 772 945 719 996 l 772 945 q 895 656 873 844 l 895 656 q 964 541 905 569 l 964 541 q 895 430 905 513 l 895 430 q 769 126 874 252 l 769 126 q 450 -17 648 -17 l 450 -17 q 332 -3 370 -17 l 332 -3 q 269 12 292 12 l 269 12 q 250 -12 250 12 l 250 -12 q 255 -41 250 -24 z m 422 444 l 422 444 q 474 433 444 433 q 530 445 505 433 q 572 477 555 457 l 572 477 q 603 576 603 515 l 603 576 l 603 782 q 528 947 603 909 l 528 947 q 474 960 503 960 q 425 951 446 960 q 388 922 404 942 l 388 922 q 353 802 353 881 l 353 802 l 353 591 q 422 444 353 477 z m 219 529 l 239 499 q 249 522 249 507 q 243 552 249 536 q 233 579 237 567 l 233 579 l 222 609 q 199 711 199 677 q 204 764 199 744 q 214 801 208 783 l 214 801 q 239 854 227 833 l 239 854 q 267 907 267 901 l 267 907 q 258 930 267 922 l 258 930 q 180 826 212 895 l 180 826 q 158 760 166 797 l 158 760 q 118 724 155 741 l 118 724 q 158 690 155 707 l 158 690 q 219 529 180 589 l 219 529 z m 713 491 l 713 491 q 760 541 713 525 l 760 541 q 713 600 713 555 q 713 671 713 644 q 711 720 712 699 l 711 720 q 692 823 705 804 q 668 848 678 843 l 668 848 l 668 180 q 703 240 696 191 l 703 240 q 713 491 713 301 z "}," ":{"ha":339,"x_min":null,"x_max":null,"o":""},"!":{"ha":575,"x_min":54,"x_max":521,"o":"m 513 1053 l 513 1053 q 478 1064 496 1064 q 449 1060 459 1064 q 434 1048 439 1056 l 434 1048 q 420 999 425 1036 l 420 999 l 357 391 q 332 336 351 355 q 292 318 313 318 q 251 338 271 318 q 225 392 231 357 l 225 392 l 155 999 q 143 1046 150 1036 l 143 1046 q 103 1064 130 1064 q 62 1053 77 1064 l 62 1053 q 54 1082 54 1062 q 72 1121 54 1103 q 123 1139 89 1139 q 194 1129 158 1139 l 194 1129 q 288 1153 236 1153 q 380 1129 340 1153 l 380 1129 q 450 1139 414 1139 q 504 1121 486 1139 q 521 1085 521 1102 l 521 1085 q 513 1053 521 1063 z m 216 1026 l 272 431 q 287 532 287 439 l 287 532 q 283 617 287 572 l 283 617 l 277 711 q 235 1016 260 966 l 235 1016 q 216 1026 227 1031 l 216 1026 z m 114 111 l 114 111 q 162 150 152 135 q 178 176 172 164 l 178 176 q 225 223 194 206 q 294 241 257 241 l 294 241 q 404 177 370 241 l 404 177 q 468 111 431 127 l 468 111 q 449 100 458 105 q 433 90 440 96 l 433 90 q 401 50 417 77 q 357 3 386 23 q 294 -17 328 -17 l 294 -17 q 227 3 259 -17 q 178 54 195 23 l 178 54 q 142 97 158 87 q 114 111 126 106 z m 264 70 q 258 86 260 77 q 256 123 256 96 q 281 189 256 150 l 281 189 q 255 183 267 189 q 235 165 243 177 q 222 148 226 154 q 213 134 218 141 l 213 134 q 192 111 200 115 l 192 111 q 212 92 203 105 q 233 64 221 79 l 233 64 q 281 42 252 42 l 281 42 q 273 56 277 50 q 264 70 269 62 z "},"\"":{"ha":718,"x_min":27,"x_max":691,"o":"m 196 552 l 196 552 q 176 564 182 552 l 176 564 q 160 624 166 585 q 148 693 154 663 q 133 754 141 724 q 116 812 125 784 l 116 812 l 99 864 q 27 938 79 921 l 27 938 q 89 990 71 960 l 89 990 q 197 1051 126 1051 l 197 1051 q 259 1036 231 1051 q 301 997 288 1020 q 330 962 315 974 q 368 938 344 950 l 368 938 q 296 864 315 921 l 296 864 l 279 812 q 241 664 249 716 q 229 595 233 611 q 220 569 224 578 l 220 569 q 196 552 210 552 z m 164 781 l 164 781 l 164 924 q 173 999 164 985 l 173 999 q 141 981 152 994 q 124 962 130 969 l 124 962 q 92 938 114 949 l 92 938 q 128 898 117 921 l 128 898 q 164 781 145 862 z m 519 552 l 519 552 q 499 564 505 552 l 499 564 q 484 624 490 585 q 471 693 477 663 q 456 754 465 724 q 439 812 448 784 l 439 812 l 422 864 q 351 938 403 921 l 351 938 q 412 990 395 960 l 412 990 q 521 1051 450 1051 l 521 1051 q 583 1036 554 1051 q 625 997 611 1020 q 653 962 639 974 q 691 938 667 950 l 691 938 q 619 864 639 921 l 619 864 l 602 812 q 564 664 572 716 q 552 595 556 611 q 543 569 548 578 l 543 569 q 519 552 534 552 z m 488 781 l 488 781 l 488 924 q 496 999 488 985 l 496 999 q 465 981 475 994 q 448 962 454 969 l 448 962 q 415 938 437 949 l 415 938 q 452 898 441 921 l 452 898 q 488 781 469 862 z "},"#":{"ha":944,"x_min":71,"x_max":866,"o":"m 663 446 l 820 446 q 825 414 825 437 q 803 370 825 392 q 738 347 781 347 l 738 347 l 645 347 l 579 -12 q 551 -20 569 -20 l 551 -20 q 483 64 483 -20 l 483 64 q 490 115 483 76 l 490 115 l 532 347 l 347 347 l 281 -12 q 254 -20 271 -20 l 254 -20 q 185 64 185 -20 l 185 64 q 192 115 185 76 l 192 115 l 235 347 l 77 347 q 71 379 71 357 q 93 424 71 401 q 159 446 115 446 l 159 446 l 253 446 l 277 578 l 117 578 q 112 610 112 587 q 134 654 112 632 q 199 677 156 677 l 199 677 l 295 677 l 363 1043 q 391 1051 373 1051 l 391 1051 q 459 967 459 1051 l 459 967 q 452 916 459 955 l 452 916 l 408 677 l 593 677 l 661 1043 q 688 1051 671 1051 l 688 1051 q 757 967 757 1051 l 757 967 q 750 916 757 955 l 750 916 l 706 677 l 861 677 q 866 645 866 667 q 844 600 866 623 q 779 578 822 578 l 779 578 l 688 578 l 663 446 z m 366 446 l 551 446 l 574 578 l 390 578 l 366 446 z "},"%":{"ha":1569,"x_min":54,"x_max":1488,"o":"m 412 496 l 412 496 q 232 553 311 496 l 232 553 q 137 690 155 609 l 137 690 q 119 739 128 727 l 119 739 q 54 787 100 764 l 54 787 q 136 892 117 815 l 136 892 q 225 1014 153 962 l 225 1014 q 410 1072 305 1072 l 410 1072 q 593 1014 515 1072 l 593 1014 q 681 892 663 962 l 681 892 q 762 787 700 815 l 762 787 q 703 747 717 764 l 703 747 q 679 688 688 727 q 646 614 670 650 q 587 553 623 579 l 587 553 q 412 496 512 496 z m 380 -17 q 336 1 352 -17 q 321 44 321 20 l 321 44 q 365 140 321 87 l 365 140 l 1129 1051 q 1173 1033 1158 1051 q 1189 990 1189 1015 l 1189 990 q 1145 894 1189 947 l 1145 894 l 380 -17 z m 486 682 l 486 882 q 411 972 486 972 l 411 972 q 354 949 370 972 q 337 882 337 926 l 337 882 l 337 682 q 382 599 337 610 l 382 599 q 411 595 395 595 l 411 595 q 460 609 447 595 l 460 609 q 486 682 486 633 l 486 682 z m 551 972 l 551 608 q 589 690 583 621 l 589 690 q 592 769 592 739 q 592 818 592 800 q 591 855 591 836 l 591 855 q 575 950 588 935 q 551 972 562 966 l 551 972 z m 256 602 l 256 602 q 262 617 262 606 l 262 617 q 244 682 262 638 q 225 772 225 725 l 225 772 q 250 910 225 852 l 250 910 q 262 946 262 937 l 262 946 q 256 972 262 968 l 256 972 q 182 821 203 922 l 182 821 q 142 787 178 804 l 142 787 q 182 752 178 770 l 182 752 q 256 602 203 651 z m 780 277 l 780 277 q 861 382 842 305 l 861 382 q 951 504 879 452 l 951 504 q 1136 562 1031 562 l 1136 562 q 1318 504 1240 562 l 1318 504 q 1407 382 1388 452 l 1407 382 q 1488 277 1426 305 l 1488 277 q 1429 237 1442 254 l 1429 237 q 1405 178 1414 217 q 1372 104 1396 140 q 1313 43 1348 69 l 1313 43 q 1137 -14 1238 -14 l 1137 -14 q 958 43 1037 -14 l 958 43 q 863 180 880 99 l 863 180 q 844 229 854 217 l 844 229 q 780 277 825 254 z m 1211 172 l 1211 372 q 1137 463 1211 463 l 1137 463 q 1079 440 1096 463 q 1063 372 1063 417 l 1063 372 l 1063 172 q 1107 89 1063 100 l 1107 89 q 1137 85 1121 85 l 1137 85 q 1186 99 1173 85 l 1186 99 q 1211 172 1211 123 l 1211 172 z m 1276 462 l 1276 98 q 1314 180 1309 111 l 1314 180 q 1318 259 1318 229 q 1317 308 1318 290 q 1316 345 1317 326 l 1316 345 q 1301 440 1314 425 q 1276 462 1288 456 l 1276 462 z m 982 92 l 982 92 q 988 107 988 96 l 988 107 q 969 172 988 128 q 951 262 951 215 l 951 262 q 976 400 951 342 l 976 400 q 987 436 987 427 l 987 436 q 982 462 987 458 l 982 462 q 907 311 929 412 l 907 311 q 867 277 904 294 l 867 277 q 907 242 904 260 l 907 242 q 982 92 929 141 z "},"&":{"ha":1158,"x_min":96,"x_max":1069,"o":"m 1045 791 l 1045 791 q 1069 728 1069 765 q 1040 663 1069 691 l 1040 663 q 1055 625 1055 640 q 1050 601 1055 610 q 1036 584 1046 591 q 1013 570 1027 576 l 1013 570 l 981 555 q 842 468 908 525 l 842 468 q 810 436 823 451 l 810 436 q 907 330 882 404 l 907 330 q 918 255 918 302 q 886 157 918 208 q 804 68 854 106 l 804 68 q 568 -14 695 -14 l 568 -14 q 228 133 348 -14 l 228 133 q 170 237 186 184 q 136 309 154 290 q 96 340 117 328 l 96 340 q 158 409 146 370 q 185 477 169 448 q 222 533 201 507 l 222 533 q 316 622 264 586 l 316 622 q 193 740 219 656 l 193 740 q 130 808 181 779 l 130 808 q 192 880 180 838 q 234 951 204 921 q 308 1004 264 982 l 308 1004 q 522 1051 402 1051 l 522 1051 q 587 1044 553 1051 l 587 1044 l 633 1034 q 662 1031 647 1031 q 693 1038 677 1031 q 712 1053 709 1044 l 712 1053 q 732 1014 732 1046 q 709 964 732 982 l 709 964 q 720 919 720 943 q 714 881 720 895 q 701 856 709 866 l 701 856 q 664 836 685 836 q 637 848 644 836 l 637 848 q 649 889 649 872 q 644 919 649 907 q 629 941 639 931 l 629 941 q 575 966 605 966 q 523 959 546 966 q 483 938 500 952 l 483 938 q 445 852 445 906 l 445 852 l 445 731 q 479 659 445 676 l 479 659 q 524 651 494 651 q 578 678 553 651 l 578 678 q 596 646 596 667 q 593 613 596 624 q 581 593 589 603 l 581 593 q 536 560 565 574 q 488 532 507 545 q 454 498 469 518 l 454 498 q 425 374 425 454 l 425 374 l 425 267 q 480 121 425 170 l 480 121 q 602 79 528 79 l 602 79 q 724 121 661 79 l 724 121 q 793 225 793 168 l 793 225 q 766 298 793 275 l 766 298 q 748 304 758 304 q 731 299 738 304 q 720 286 724 294 l 720 286 q 715 261 715 275 q 723 238 715 246 l 723 238 q 666 222 707 204 q 625 288 625 240 l 625 288 q 763 564 625 383 l 763 564 q 909 844 909 753 l 909 844 q 873 924 909 895 l 873 924 q 910 953 884 953 q 961 943 937 953 q 1005 917 985 934 l 1005 917 q 1053 829 1053 878 l 1053 829 q 1045 791 1053 812 z m 323 686 l 323 686 q 315 705 319 696 q 307 728 311 713 l 307 728 q 299 802 299 758 q 301 866 299 847 q 307 899 303 884 q 315 924 311 913 l 315 924 l 323 944 q 285 920 304 941 q 261 876 266 900 q 253 842 257 851 q 243 827 250 833 l 243 827 q 203 808 233 819 l 203 808 q 239 790 224 802 q 260 751 254 779 q 285 707 267 724 q 323 686 303 690 z m 871 597 l 770 467 q 888 574 863 551 l 888 574 q 985 732 985 669 l 985 732 q 968 779 986 758 l 968 779 q 871 597 950 702 l 871 597 z m 306 137 l 306 137 q 274 252 283 189 q 265 345 265 315 q 269 406 265 376 q 277 463 272 437 l 277 463 q 296 537 286 512 l 296 537 q 227 404 254 530 l 227 404 q 205 366 220 377 q 170 347 191 354 l 170 347 q 220 290 207 335 l 220 290 q 228 254 223 277 q 242 207 232 230 q 264 168 252 183 l 264 168 q 306 137 286 140 z "},"'":{"ha":395,"x_min":27,"x_max":368,"o":"m 196 552 l 196 552 q 176 564 182 552 l 176 564 q 160 624 166 585 q 148 693 154 663 q 133 754 141 724 q 116 812 125 784 l 116 812 l 99 864 q 27 938 79 921 l 27 938 q 89 990 71 960 l 89 990 q 197 1051 126 1051 l 197 1051 q 259 1036 231 1051 q 301 997 288 1020 q 330 962 315 974 q 368 938 344 950 l 368 938 q 296 864 315 921 l 296 864 l 279 812 q 241 664 249 716 q 229 595 233 611 q 220 569 224 578 l 220 569 q 196 552 210 552 z m 164 781 l 164 781 l 164 924 q 173 999 164 985 l 173 999 q 141 981 152 994 q 124 962 130 969 l 124 962 q 92 938 114 949 l 92 938 q 128 898 117 921 l 128 898 q 164 781 145 862 z "},"(":{"ha":536,"x_min":54,"x_max":506,"o":"m 374 -157 l 374 -157 q 336 -175 353 -175 l 336 -175 q 284 -153 298 -176 l 284 -153 q 334 -82 329 -124 l 334 -82 q 130 350 178 82 l 130 350 q 79 437 119 400 l 79 437 q 54 452 66 447 l 54 452 q 119 524 96 473 l 119 524 q 135 583 127 539 q 163 688 143 627 q 210 802 184 749 l 210 802 q 334 979 258 898 l 334 979 q 298 1044 328 1013 l 298 1044 q 284 1057 291 1053 l 284 1057 q 326 1081 299 1082 q 374 1061 353 1080 l 374 1061 q 452 1085 402 1085 l 452 1085 q 469 1037 469 1057 q 463 1006 469 1016 l 463 1006 q 493 989 480 1001 q 506 964 506 977 l 506 964 q 483 931 506 940 l 483 931 q 431 947 466 947 l 431 947 l 420 947 q 408 945 414 947 l 408 945 q 328 781 363 891 l 328 781 q 292 548 292 663 l 292 548 q 328 471 292 507 l 328 471 q 354 452 340 459 l 354 452 q 296 382 310 431 l 296 382 q 292 332 292 369 q 301 233 292 295 q 328 118 311 172 l 328 118 q 406 -45 361 5 l 406 -45 q 444 -47 419 -47 q 486 -32 469 -47 l 486 -32 q 506 -59 506 -40 l 506 -59 q 467 -110 506 -96 l 467 -110 q 469 -134 469 -116 q 452 -180 469 -153 l 452 -180 q 374 -157 402 -180 z m 433 968 l 427 964 l 433 968 z m 427 -64 l 427 -64 l 422 -60 q 427 -64 424 -62 z "},")":{"ha":536,"x_min":31,"x_max":482,"o":"m 162 -157 l 162 -157 q 201 -175 184 -175 l 201 -175 q 252 -153 238 -176 l 252 -153 q 203 -82 208 -124 l 203 -82 q 407 350 358 82 l 407 350 q 458 437 417 400 l 458 437 q 482 452 470 447 l 482 452 q 417 524 441 473 l 417 524 q 401 583 410 539 q 373 688 393 627 q 326 802 353 749 l 326 802 q 203 979 279 898 l 203 979 q 238 1044 208 1013 l 238 1044 q 252 1057 245 1053 l 252 1057 q 211 1081 237 1082 q 162 1061 184 1080 l 162 1061 q 84 1085 134 1085 l 84 1085 q 68 1037 68 1057 q 73 1006 68 1016 l 73 1006 q 43 989 56 1001 q 31 964 31 977 l 31 964 q 54 931 31 940 l 54 931 q 105 947 71 947 l 105 947 l 117 947 q 128 945 123 947 l 128 945 q 208 781 174 891 l 208 781 q 245 548 245 663 l 245 548 q 208 471 245 507 l 208 471 q 182 452 197 459 l 182 452 q 241 382 227 431 l 241 382 q 245 332 245 369 q 235 233 245 295 q 209 118 225 172 l 209 118 q 130 -45 175 5 l 130 -45 q 93 -47 117 -47 q 51 -32 68 -47 l 51 -32 q 31 -59 31 -40 l 31 -59 q 70 -110 31 -96 l 70 -110 q 68 -134 68 -116 q 84 -180 68 -153 l 84 -180 q 162 -157 134 -180 z m 103 968 l 110 964 l 103 968 z m 110 -64 l 110 -64 l 115 -60 q 110 -64 113 -62 z "},"*":{"ha":668,"x_min":54,"x_max":614,"o":"m 245 574 l 245 574 q 196 551 222 551 q 156 555 170 551 l 156 555 q 142 613 142 578 q 183 694 142 648 q 302 781 224 740 l 302 781 l 281 778 q 188 780 235 772 q 113 800 140 787 l 113 800 q 54 886 58 828 l 54 886 q 123 918 82 918 l 123 918 q 313 817 213 918 l 313 817 q 281 914 289 867 q 273 989 273 962 l 273 989 q 337 1085 273 1059 l 337 1085 q 384 1043 371 1071 q 397 989 397 1016 q 393 944 397 962 q 384 903 390 926 l 384 903 q 353 818 371 853 l 353 818 q 505 908 427 887 l 505 908 q 574 908 550 920 q 614 878 598 896 l 614 878 q 563 801 608 825 q 426 777 517 777 l 426 777 q 363 781 383 777 l 363 781 q 477 692 433 743 l 477 692 q 519 604 519 644 l 519 604 q 503 550 519 575 l 503 550 q 470 547 488 547 q 430 562 452 547 q 389 605 408 577 l 389 605 q 332 759 347 667 l 332 759 q 245 574 309 633 z "},"+":{"ha":731,"x_min":81,"x_max":650,"o":"m 313 115 l 313 356 l 81 356 l 81 455 l 313 455 l 313 696 l 418 696 l 418 455 l 650 455 l 650 356 l 418 356 l 418 115 l 313 115 z "},",":{"ha":475,"x_min":60,"x_max":407,"o":"m 60 111 l 60 111 q 102 148 92 132 l 102 148 l 117 176 q 201 236 142 222 l 201 236 q 247 241 219 241 q 300 224 274 241 q 340 181 326 208 l 340 181 q 407 111 370 127 l 407 111 q 349 38 365 94 l 349 38 q 338 -7 345 23 q 312 -83 332 -37 q 266 -164 292 -129 l 266 -164 q 153 -242 210 -242 l 153 -242 q 115 -231 130 -242 q 101 -200 101 -219 l 101 -200 q 170 -148 138 -196 q 201 -48 201 -100 l 201 -48 q 196 -11 201 -31 l 196 -11 q 117 54 142 7 l 117 54 l 104 75 q 60 111 91 98 z m 203 70 q 197 86 199 77 q 195 123 195 96 q 220 189 195 150 l 220 189 q 194 183 205 189 q 174 165 182 177 q 161 148 165 154 q 152 134 157 141 l 152 134 q 131 111 139 115 l 131 111 q 151 92 142 105 q 172 64 160 79 l 172 64 q 220 42 191 42 l 220 42 q 212 56 216 50 q 203 70 208 62 z "},"-":{"ha":583,"x_min":88,"x_max":495,"o":"m 408 356 l 94 356 q 88 388 88 366 q 110 433 88 410 q 176 455 132 455 l 176 455 l 490 455 q 495 423 495 446 q 473 378 495 401 q 408 356 451 356 l 408 356 z "},".":{"ha":460,"x_min":53,"x_max":407,"o":"m 53 111 l 53 111 q 101 150 91 135 q 117 176 111 164 l 117 176 q 164 223 133 206 q 233 241 196 241 l 233 241 q 342 177 309 241 l 342 177 q 407 111 370 127 l 407 111 q 388 100 397 105 q 372 90 379 96 l 372 90 q 340 50 356 77 q 296 3 325 23 q 233 -17 267 -17 l 233 -17 q 166 3 198 -17 q 117 54 134 23 l 117 54 q 81 97 97 87 q 53 111 65 106 z m 203 70 q 197 86 199 77 q 195 123 195 96 q 220 189 195 150 l 220 189 q 194 183 205 189 q 174 165 182 177 q 161 148 165 154 q 152 134 157 141 l 152 134 q 131 111 139 115 l 131 111 q 151 92 142 105 q 172 64 160 79 l 172 64 q 220 42 191 42 l 220 42 q 212 56 216 50 q 203 70 208 62 z "},"/":{"ha":554,"x_min":44,"x_max":507,"o":"m 103 -181 l 103 -181 q 44 -113 44 -181 l 44 -113 q 60 -41 44 -86 l 60 -41 l 420 1076 q 448 1085 432 1085 l 448 1085 q 507 1017 507 1085 l 507 1017 q 492 945 507 990 l 492 945 l 131 -172 q 103 -181 119 -181 z "},":":{"ha":460,"x_min":53,"x_max":407,"o":"m 53 111 l 53 111 q 101 150 91 135 q 117 176 111 164 l 117 176 q 164 223 133 206 q 233 241 196 241 l 233 241 q 342 177 309 241 l 342 177 q 407 111 370 127 l 407 111 q 388 100 397 105 q 372 90 379 96 l 372 90 q 340 50 356 77 q 296 3 325 23 q 233 -17 267 -17 l 233 -17 q 166 3 198 -17 q 117 54 134 23 l 117 54 q 81 97 97 87 q 53 111 65 106 z m 203 70 q 197 86 199 77 q 195 123 195 96 q 220 189 195 150 l 220 189 q 194 183 205 189 q 174 165 182 177 q 161 148 165 154 q 152 134 157 141 l 152 134 q 131 111 139 115 l 131 111 q 151 92 142 105 q 172 64 160 79 l 172 64 q 220 42 191 42 l 220 42 q 212 56 216 50 q 203 70 208 62 z m 53 540 l 53 540 q 101 578 91 564 q 117 604 111 593 l 117 604 q 164 652 133 635 q 233 669 196 669 l 233 669 q 342 606 309 669 l 342 606 q 407 540 370 555 l 407 540 q 388 529 397 534 q 372 518 379 524 l 372 518 q 340 478 356 505 q 296 432 325 452 q 233 412 267 412 l 233 412 q 166 432 198 412 q 117 482 134 452 l 117 482 q 81 525 97 516 q 53 540 65 534 z m 203 498 q 197 515 199 505 q 195 552 195 525 q 220 617 195 578 l 220 617 q 194 611 205 617 q 174 594 182 606 q 161 576 165 583 q 152 563 157 570 l 152 563 q 131 540 139 544 l 131 540 q 151 520 142 534 q 172 492 160 507 l 172 492 q 220 471 191 471 l 220 471 q 212 485 216 478 q 203 498 208 491 z "},";":{"ha":460,"x_min":53,"x_max":407,"o":"m 53 540 l 53 540 q 101 578 91 564 q 117 604 111 593 l 117 604 q 164 652 133 635 q 233 669 196 669 l 233 669 q 342 606 309 669 l 342 606 q 407 540 370 555 l 407 540 q 388 529 397 534 q 372 518 379 524 l 372 518 q 340 478 356 505 q 296 432 325 452 q 233 412 267 412 l 233 412 q 166 432 198 412 q 117 482 134 452 l 117 482 q 81 525 97 516 q 53 540 65 534 z m 203 498 q 197 515 199 505 q 195 552 195 525 q 220 617 195 578 l 220 617 q 194 611 205 617 q 174 594 182 606 q 161 576 165 583 q 152 563 157 570 l 152 563 q 131 540 139 544 l 131 540 q 151 520 142 534 q 172 492 160 507 l 172 492 q 220 471 191 471 l 220 471 q 212 485 216 478 q 203 498 208 491 z m 56 111 l 56 111 q 98 148 89 132 l 98 148 l 113 176 q 197 236 138 222 l 197 236 q 243 241 216 241 q 297 224 271 241 q 337 181 323 208 l 337 181 q 404 111 366 127 l 404 111 q 346 38 361 94 l 346 38 q 335 -7 342 23 q 308 -83 328 -37 q 262 -164 288 -129 l 262 -164 q 149 -242 207 -242 l 149 -242 q 112 -231 126 -242 q 98 -200 98 -219 l 98 -200 q 166 -148 134 -196 q 198 -48 198 -100 l 198 -48 q 193 -11 198 -31 l 193 -11 q 113 54 138 7 l 113 54 l 101 75 q 56 111 87 98 z m 200 70 q 194 86 196 77 q 191 123 191 96 q 217 189 191 150 l 217 189 q 191 183 202 189 q 170 165 179 177 q 158 148 161 154 q 149 134 154 141 l 149 134 q 127 111 136 115 l 127 111 q 148 92 138 105 q 169 64 157 79 l 169 64 q 217 42 187 42 l 217 42 q 209 56 213 50 q 200 70 204 62 z "},"?":{"ha":796,"x_min":-19,"x_max":779,"o":"m 490 437 l 490 437 q 505 404 505 431 q 497 359 505 378 q 476 327 490 340 l 476 327 q 416 298 447 298 q 365 306 385 298 q 328 328 344 313 l 328 328 q 291 402 291 359 q 306 476 291 445 q 343 534 321 507 q 391 588 366 562 q 439 644 417 614 l 439 644 q 491 793 491 715 l 491 793 l 492 819 q 465 860 492 843 l 465 860 q 435 876 454 867 l 435 876 q 484 910 476 895 l 484 910 q 491 969 491 926 l 491 969 q 380 1048 491 1048 q 269 966 269 1048 l 269 966 l 269 787 q 331 718 269 718 l 331 718 q 363 728 353 718 l 363 728 q 374 707 374 722 q 367 680 374 691 q 347 661 361 669 l 347 661 q 272 641 318 641 q 191 655 226 641 q 127 693 156 670 l 127 693 q 49 808 69 741 l 49 808 q 2 865 37 846 l 2 865 l -19 876 q 38 921 24 901 q 63 970 52 941 q 105 1032 74 1000 q 179 1088 136 1065 l 179 1088 q 390 1137 270 1137 l 390 1137 q 715 953 646 1137 l 715 953 q 779 876 731 905 l 779 876 q 758 865 768 870 q 738 852 747 859 l 738 852 q 710 800 716 836 q 679 727 703 764 q 623 661 654 691 q 556 604 591 630 l 556 604 l 492 555 q 426 463 426 500 l 426 463 q 437 436 426 445 q 462 428 449 428 q 490 437 475 428 z m 548 823 l 548 798 q 538 720 548 742 l 538 720 q 585 819 569 720 l 585 819 q 590 884 590 854 q 585 943 590 914 q 572 992 580 972 l 572 992 q 538 1032 557 1032 l 538 1032 q 548 958 548 1010 q 540 893 548 905 q 515 876 532 880 l 515 876 q 543 856 537 868 q 548 823 548 844 l 548 823 z m 172 747 l 172 747 q 153 836 153 802 l 153 836 l 153 880 q 172 1019 153 955 l 172 1019 q 148 1001 155 1010 l 148 1001 q 121 943 132 980 q 100 894 111 905 q 68 876 89 882 l 68 876 q 117 831 106 863 l 117 831 q 125 805 121 820 l 125 805 q 172 747 140 758 z m 228 111 l 228 111 q 276 150 266 135 q 292 176 286 164 l 292 176 q 339 223 308 206 q 408 241 371 241 l 408 241 q 517 177 484 241 l 517 177 q 582 111 545 127 l 582 111 q 563 100 572 105 q 547 90 554 96 l 547 90 q 515 50 531 77 q 471 3 500 23 q 408 -17 442 -17 l 408 -17 q 341 3 373 -17 q 292 54 309 23 l 292 54 q 256 97 272 87 q 228 111 240 106 z m 378 70 q 372 86 374 77 q 370 123 370 96 q 395 189 370 150 l 395 189 q 369 183 380 189 q 349 165 357 177 q 336 148 340 154 q 327 134 332 141 l 327 134 q 306 111 314 115 l 306 111 q 326 92 317 105 q 347 64 335 79 l 347 64 q 395 42 366 42 l 395 42 q 387 56 391 50 q 378 70 382 62 z "},"@":{"ha":1670,"x_min":47,"x_max":1615,"o":"m 1301 19 l 1301 19 q 1314 -19 1314 9 q 1285 -81 1314 -47 q 1208 -143 1255 -115 q 1112 -192 1161 -172 q 1004 -229 1063 -213 l 1004 -229 q 756 -262 876 -262 q 551 -248 637 -262 q 389 -202 465 -233 q 251 -125 313 -172 q 142 -15 188 -79 l 142 -15 q 47 309 47 119 l 47 309 q 172 677 47 505 l 172 677 q 503 947 295 847 l 503 947 q 973 1051 721 1051 l 973 1051 q 1458 913 1283 1051 l 1458 913 q 1576 767 1537 850 q 1615 603 1615 684 q 1594 453 1615 521 q 1536 325 1573 385 q 1448 217 1499 266 q 1339 134 1398 169 l 1339 134 q 1084 61 1215 61 q 885 111 954 61 l 885 111 q 715 61 814 61 l 715 61 q 548 142 610 61 l 548 142 q 487 344 487 220 l 487 344 q 477 398 487 383 l 477 398 q 432 440 463 422 l 432 440 q 488 466 467 450 q 515 494 510 481 l 515 494 q 689 701 568 630 l 689 701 q 904 760 789 760 l 904 760 q 1022 746 966 760 l 1022 746 l 1175 746 q 1117 492 1117 505 l 1117 492 q 1160 434 1117 459 l 1160 434 q 1109 406 1121 419 l 1109 406 q 1084 355 1091 386 l 1084 355 l 1061 250 q 1058 233 1059 245 l 1058 233 q 1054 208 1058 233 l 1054 208 q 1050 165 1050 173 l 1050 165 q 1080 128 1050 128 l 1080 128 q 1182 162 1131 128 q 1276 256 1234 196 l 1276 256 q 1372 573 1372 390 l 1372 573 q 1156 945 1372 860 l 1156 945 q 986 974 1081 974 q 806 950 891 974 q 646 883 722 926 q 505 779 570 840 q 393 643 441 718 l 393 643 q 289 303 293 485 l 289 303 q 426 -45 283 85 l 426 -45 q 807 -174 566 -174 l 807 -174 q 1205 -69 1048 -174 l 1205 -69 q 1301 19 1260 -33 z m 1389 336 l 1389 336 q 1485 600 1485 418 l 1485 600 q 1465 718 1485 669 l 1465 718 q 1389 828 1430 804 l 1389 828 q 1443 587 1443 728 l 1443 587 q 1389 336 1443 450 z m 296 -72 l 296 -72 q 298 -59 298 -69 l 298 -59 q 279 -22 298 -46 q 237 40 260 2 q 197 121 214 78 l 197 121 q 160 291 160 212 q 172 422 160 370 q 205 525 183 475 l 205 525 q 328 721 241 608 l 328 721 q 340 747 340 736 q 338 764 340 758 l 338 764 q 174 554 234 681 l 174 554 q 119 309 119 436 l 119 309 q 165 91 119 197 l 165 91 q 296 -72 215 -20 z m 789 628 q 743 563 760 600 q 726 491 726 527 q 771 434 726 456 l 771 434 q 707 388 723 418 l 707 388 q 688 303 688 354 q 694 226 688 252 q 711 181 700 200 l 711 181 q 776 141 734 141 l 776 141 q 861 181 821 141 l 861 181 l 879 283 q 898 382 898 368 q 892 406 898 397 q 878 421 886 415 q 861 430 869 427 q 848 435 853 433 l 848 435 q 927 496 920 467 l 927 496 l 975 686 q 927 690 957 690 q 857 673 897 690 q 789 628 818 656 z m 603 173 l 603 173 q 583 326 583 230 l 583 326 q 718 652 583 509 l 718 652 q 595 534 645 616 l 595 534 q 541 348 541 447 l 541 348 q 603 173 541 235 z m 1014 631 l 919 180 q 965 229 952 193 l 965 229 q 1034 557 1006 351 l 1034 557 q 1038 594 1038 582 l 1038 594 q 1014 631 1038 620 l 1014 631 z "}}}
